<svg width="40" height="40" viewBox="0 0 40 40" fill="none" xmlns="http://www.w3.org/2000/svg">
<path d="M35.0031 5.12177C34.029 5.0791 33.0358 5.37022 32.2172 5.9749L30.0203 7.59677L20 15.0046L10.0734 7.66709C9.93511 7.53191 9.75249 7.45143 9.55938 7.44052H9.75938L7.7875 5.98115C6.96833 5.37497 5.97372 5.08221 4.99844 5.1249C4.02316 5.16759 3.06796 5.54507 2.32657 6.27646C1.38476 7.205 0.800005 8.50376 0.800005 9.92802V12.6749C0.788345 12.7531 0.788345 12.8326 0.800005 12.9108V31.5999C0.800005 33.1368 2.06305 34.3999 3.6 34.3999H9.6C9.81217 34.3999 10.0156 34.3156 10.1657 34.1656C10.3157 34.0155 10.4 33.8121 10.4 33.5999V20.2983L19.525 27.0436C19.6626 27.1451 19.829 27.1999 20 27.1999C20.171 27.1999 20.3374 27.1451 20.475 27.0436L29.6 20.2983V33.5999C29.6 33.8121 29.6843 34.0155 29.8343 34.1656C29.9844 34.3156 30.1878 34.3999 30.4 34.3999H36.4C37.937 34.3999 39.2 33.1368 39.2 31.5999V12.8952C39.209 12.8262 39.209 12.7564 39.2 12.6874V9.92802C39.2 8.52126 38.6324 7.22852 37.7031 6.29834C37.6763 6.27148 37.6673 6.26404 37.6781 6.2749C37.6766 6.27333 37.675 6.27177 37.6734 6.27021C36.9322 5.54044 35.9773 5.16445 35.0031 5.12177ZM34.9156 6.72021C35.5207 6.74393 36.1072 6.97341 36.5516 7.41084C36.5667 7.42577 36.5777 7.43705 36.5703 7.42959C37.2075 8.0674 37.6 8.95079 37.6 9.92802V12.3968L31.2 17.1265V8.7999C31.2003 8.77278 31.1993 8.74566 31.1969 8.71865L33.1672 7.2624H33.1688C33.6877 6.87908 34.3106 6.69649 34.9156 6.72021ZM5.08594 6.7249C5.69166 6.70119 6.31672 6.88287 6.83594 7.26709L8.80313 8.72177C8.80081 8.74775 8.79977 8.77382 8.8 8.7999V17.1265L2.4 12.3968V9.92802C2.4 8.93948 2.80141 8.05498 3.45 7.41552C3.89421 6.97731 4.48022 6.74861 5.08594 6.7249ZM29.6 9.89677V18.3093L20 25.4046L10.4 18.3093V9.89834L19.525 16.6436C19.6626 16.7451 19.829 16.7999 20 16.7999C20.171 16.7999 20.3374 16.7451 20.475 16.6436L29.6 9.89677ZM2.4 14.3858L8.8 19.1171V32.7999H3.6C2.92736 32.7999 2.4 32.2725 2.4 31.5999V14.3858ZM37.6 14.3858V31.5999C37.6 32.2725 37.0727 32.7999 36.4 32.7999H31.2V19.1171L37.6 14.3858Z" fill="#6D6D6D"/>
</svg>
